<svg width="18" height="16" viewBox="0 0 18 16" fill="none" xmlns="http://www.w3.org/2000/svg">
<path d="M0.0571289 7.65723C0.0571289 7.45215 0.152344 7.23975 0.342773 7.07861L7.97461 0.669922C8.61182 0.142578 9.40283 0.142578 10.0327 0.669922L13.519 3.60693V2.31787C13.519 1.98828 13.7388 1.77588 14.0684 1.77588H15.0571C15.3794 1.77588 15.5918 1.98828 15.5918 2.31787V5.34277L17.6499 7.07861C17.8403 7.23242 17.9355 7.43018 17.9355 7.6792C17.9355 8.09668 17.6133 8.36035 17.1885 8.36035C16.9614 8.36035 16.7637 8.23584 16.5879 8.08936L9.31494 1.98828C9.11719 1.8125 8.89014 1.8125 8.69238 1.98828L1.41211 8.08936C1.23633 8.23584 1.03857 8.36035 0.811523 8.36035C0.342773 8.36035 0.0571289 8.03809 0.0571289 7.65723ZM2.43018 14.2417V8.65332L8.5459 3.52637C8.82422 3.29199 9.16846 3.28467 9.44678 3.52637L15.5698 8.66064V14.2417C15.5698 15.2964 14.9106 15.9263 13.8267 15.9263L4.16602 15.9263C3.08936 15.9263 2.43018 15.2964 2.43018 14.2417ZM10.9116 14.4907V9.7373C10.9116 9.39307 10.6919 9.17334 10.3477 9.17334L7.64502 9.17334C7.30078 9.17334 7.07373 9.39307 7.07373 9.7373V14.4907L10.9116 14.4907Z" fill="#007AFF"/>
</svg>
