<svg width="75" height="75" viewBox="0 0 75 75" fill="none" xmlns="http://www.w3.org/2000/svg">
<path d="M-0.000427246 37.5C-0.000427246 17.0256 16.9858 0 37.4657 0C57.9456 0 74.9996 17.0256 74.9996 37.5C74.9996 57.9744 58.0133 75 37.5033 75C16.9933 75 -0.000427246 58.0196 -0.000427246 37.5ZM46.6892 67.3946L46.6892 24.9624C46.6892 22.4247 45.2586 20.7681 42.8266 20.7681L18.1604 20.7681C15.7736 20.7681 14.2978 22.4247 14.2978 24.9624L14.2978 58.494C19.9976 64.8193 28.2347 68.75 37.4958 68.75C40.6958 68.75 43.7828 68.2756 46.6892 67.387V67.3946ZM22.0983 32.1687L22.0983 28.2681C22.0983 27.756 22.4295 27.387 22.9415 27.387H26.9472C27.4215 27.387 27.8281 27.756 27.8281 28.2681L27.8281 32.1687C27.8281 32.6807 27.4215 33.0497 26.9472 33.0497H22.9415C22.4295 33.0497 22.0983 32.6807 22.0983 32.1687ZM22.0983 41.4383V37.5377C22.0983 37.0256 22.4295 36.6566 22.9415 36.6566H26.9472C27.4215 36.6566 27.8281 37.0256 27.8281 37.5377V41.4383C27.8281 41.9127 27.4215 42.3193 26.9472 42.3193H22.9415C22.4295 42.3193 22.0983 41.9127 22.0983 41.4383ZM22.0983 50.7379V46.875C22.0983 46.363 22.4295 45.994 22.9415 45.994H26.9472C27.4215 45.994 27.8281 46.363 27.8281 46.875V50.7379C27.8281 51.25 27.4215 51.619 26.9472 51.619H22.9415C22.4295 51.619 22.0983 51.25 22.0983 50.7379ZM22.0983 60.0828V56.1822C22.0983 55.7078 22.4295 55.3012 22.9415 55.3012H26.9472C27.4215 55.3012 27.8281 55.7078 27.8281 56.1822V60.0828C27.8281 60.6325 27.4215 60.9639 26.9472 60.9639H22.9415C22.4295 60.9639 22.0983 60.6325 22.0983 60.0828ZM33.1212 32.1687V28.2681C33.1212 27.756 33.4525 27.387 33.9645 27.387H37.9702C38.4822 27.387 38.8511 27.756 38.8511 28.2681V32.1687C38.8511 32.6807 38.4822 33.0497 37.9702 33.0497H33.9645C33.4525 33.0497 33.1212 32.6807 33.1212 32.1687ZM33.1212 41.4383V37.5377C33.1212 37.0256 33.4525 36.6566 33.9645 36.6566H37.9702C38.4822 36.6566 38.8511 37.0256 38.8511 37.5377V41.4383C38.8511 41.9127 38.4822 42.3193 37.9702 42.3193H33.9645C33.4525 42.3193 33.1212 41.9127 33.1212 41.4383ZM33.1212 50.7379V46.875C33.1212 46.363 33.4525 45.994 33.9645 45.994H37.9702C38.4822 45.994 38.8511 46.363 38.8511 46.875V50.7379C38.8511 51.25 38.4822 51.619 37.9702 51.619H33.9645C33.4525 51.619 33.1212 51.25 33.1212 50.7379ZM33.1212 60.0828L33.1212 56.1822C33.1212 55.7078 33.4525 55.3012 33.9645 55.3012H37.9702C38.4822 55.3012 38.8511 55.7078 38.8511 56.1822L38.8511 60.0828C38.8511 60.6325 38.4822 60.9639 37.9702 60.9639H33.9645C33.4525 60.9639 33.1212 60.6325 33.1212 60.0828ZM64.082 53.9383V34.3072C64.082 31.7696 62.6138 30.1883 60.2194 30.1883H49.5578L49.5578 66.3705C55.6265 63.8705 60.6938 59.4578 64.082 53.9458V53.9383ZM54.339 40.3313V36.988C54.339 36.619 54.6326 36.2877 55.0769 36.2877L58.5328 36.2877C58.9018 36.2877 59.1954 36.619 59.1954 36.988V40.3313C59.1954 40.738 58.9018 41.0316 58.5328 41.0316L55.0769 41.0316C54.6326 41.0316 54.339 40.738 54.339 40.3313ZM54.339 48.7199V45.4142C54.339 45.0075 54.6326 44.7139 55.0769 44.7139L58.5328 44.7139C58.9018 44.7139 59.1954 45.0075 59.1954 45.4142V48.7199C59.1954 49.1265 58.9018 49.4202 58.5328 49.4202L55.0769 49.4202C54.6326 49.4202 54.339 49.1265 54.339 48.7199ZM54.339 57.1386V53.7952C54.339 53.4262 54.6326 53.0949 55.0769 53.0949L58.5328 53.0949C58.9018 53.0949 59.1954 53.4262 59.1954 53.7952V57.1386C59.1954 57.5075 58.9018 57.8389 58.5328 57.8389L55.0769 57.8389C54.6326 57.8389 54.339 57.5075 54.339 57.1386Z" fill="#007AFF"/>
</svg>
