<svg width="39" height="71" viewBox="0 0 39 71" fill="none" xmlns="http://www.w3.org/2000/svg">
<path d="M10.1557 71C7.73207 71 6.0777 69.6055 6.16042 67.1442L6.76426 32.6103C6.76426 31.5014 6.31758 30.7202 5.39114 30.317C1.39585 28.5109 -0.21716 26.6208 0.0227233 21.2446L0.833362 2.46131C0.907809 1.10885 1.63573 0.369617 2.85169 0.369617C4.06765 0.369617 4.74594 1.15085 4.74594 2.50331L4.50605 20.8413C4.50605 21.9082 5.23397 22.6054 6.16042 22.6054C7.21094 22.6054 7.8975 21.9082 7.8975 20.9253L8.17874 2.01609C8.17874 0.705632 8.98938 0.00840038 10.1557 0.00840038C11.322 0.00840038 12.174 0.705632 12.174 2.01609L12.4139 20.9253C12.4139 21.9082 13.1418 22.6054 14.151 22.6054C15.1602 22.6054 15.8054 21.9082 15.8054 20.8413L15.6068 2.50331C15.6068 1.15085 16.3348 0.369617 17.5011 0.369617C18.6674 0.369617 19.3953 1.10885 19.4367 2.46131L20.3631 21.2446C20.603 26.6208 18.9487 28.5025 14.9947 30.3086C14.0269 30.7202 13.6216 31.5014 13.6216 32.6019L14.1841 67.1358C14.2668 69.5971 12.6124 70.9916 10.1474 70.9916L10.1557 71ZM31.5632 45.2444C31.6046 43.976 31.1165 43.0687 30.0246 42.2875L28.453 41.0947C26.9144 39.9858 26.1534 38.5073 26.1534 36.298V34.1643C26.1534 21.6562 29.305 8.896 34.1523 1.92369C35.0787 0.571226 35.848 0 36.9399 0C38.0318 0 38.9996 0.613228 38.9996 2.1757L38.9996 67.2702C38.9996 69.6895 37.4279 71 34.8802 71C32.3325 71 30.7608 69.6055 30.8436 66.8586L31.5715 45.2444H31.5632Z" fill="#007AFF"/>
</svg>
