<svg width="75" height="70" viewBox="0 0 75 70" fill="none" xmlns="http://www.w3.org/2000/svg">
<path d="M-0.000427246 55.8299L-0.000427246 24.2907C-0.000427246 22.1828 0.26783 21.2829 1.24941 19.9577L6.9072 12.3457L6.9072 6.62587C6.9072 2.34833 9.40688 0 13.8697 0L38.9335 0C43.4268 0 45.9021 2.34833 45.9021 6.61971V12.3395L51.5904 19.9516C52.511 21.2151 52.7792 22.0903 52.8097 23.9517H44.7437C40.7259 23.9517 37.9275 27.2308 38.3116 31.2679L41.4088 64.0398C41.4393 64.3418 41.4697 64.5822 41.5002 64.8842H9.07765C3.03576 64.8842 -0.000427246 61.8456 -0.000427246 55.8237L-0.000427246 55.8299ZM34.3853 11.7663C35.4279 11.7663 36.2875 10.8911 36.2875 9.81245C36.2875 8.73382 35.4218 7.82777 34.3853 7.82777L18.3386 7.82777C17.2961 7.82777 16.4364 8.75848 16.4364 9.81245C16.4364 10.8664 17.3022 11.7663 18.3386 11.7663H34.3853ZM45.457 63.6515L42.3294 30.8796C42.1831 29.2216 43.1342 28.0814 44.7437 28.0814H56.8275L56.9494 26.5466C57.2177 23.5943 58.1993 21.7637 60.4916 20.0748L70.0758 13.0607C72.4901 11.2856 74.8678 14.7433 72.6059 16.3705L62.6621 23.5943C61.5586 24.4079 61.1135 25.2769 60.9977 26.787L60.9062 28.0814H72.5449C74.185 28.0814 75.1361 29.197 74.9836 30.8796L71.856 63.6515C71.4414 67.9845 69.4722 70 65.5459 70H51.7611C47.8043 70 45.8655 67.9845 45.4509 63.6515H45.457Z" fill="#007AFF"/>
</svg>
