<svg width="75" height="60" viewBox="0 0 75 60" fill="none" xmlns="http://www.w3.org/2000/svg">
<path d="M-0.000427246 42.1033L-0.000427246 7.68758C-0.000427246 2.43542 2.58006 0 7.71031 0L67.2888 0C72.4191 0 74.9996 2.43542 74.9996 7.68758V42.1033C74.9996 47.3862 72.4191 49.8216 67.2888 49.8216L7.71031 49.8216C2.58006 49.8216 -0.000427246 47.3862 -0.000427246 42.1033ZM19.9799 57.5646C19.9799 56.2116 21.092 55.1292 22.4129 55.1292H52.5923C53.9133 55.1292 55.0254 56.2116 55.0254 57.5646C55.0254 58.9176 53.9133 60 52.5923 60H22.4129C21.092 60 19.9799 58.9176 19.9799 57.5646Z" fill="#007AFF"/>
</svg>
