<svg width="69" height="31" viewBox="0 0 69 31" fill="none" xmlns="http://www.w3.org/2000/svg">
<path d="M0 28.7083C0 24.259 5.67473 18.1219 14.7752 18.1219C23.8756 18.1219 29.5683 24.259 29.5683 28.7083C29.5683 30.2267 28.586 31 25.808 31H3.74237C0.982373 31 0 30.2231 0 28.7083ZM7.76542 7.4472C7.76542 3.22394 11.0328 0 14.7932 0C18.5535 0 21.8209 3.15685 21.8209 7.41542C21.8209 11.674 18.5535 15.0357 14.7932 15.0357C11.0328 15.0357 7.76542 11.7234 7.76542 7.45073V7.4472ZM49.2842 28.7083C49.2842 30.2267 48.3018 31 45.5418 31H31.1876C31.5907 30.3785 31.785 29.6017 31.785 28.7083C31.785 25.3466 29.7986 22.2074 26.7256 19.8627C28.8882 18.7928 31.5223 18.1219 34.509 18.1219C43.6094 18.1219 49.2842 24.259 49.2842 28.7083ZM27.4992 7.4472C27.4813 3.22394 30.7666 0 34.509 0C38.2514 0 41.5367 3.15685 41.5367 7.41542C41.5367 11.674 38.2874 15.0357 34.509 15.0357C30.7306 15.0357 27.4992 11.7234 27.4992 7.45073V7.4472ZM69 28.7083C69 30.2267 68.0176 31 65.2396 31H50.9215C51.3065 30.3785 51.5188 29.6017 51.5188 28.7083C51.5188 25.3466 49.5325 22.1898 46.4414 19.8451C48.6041 18.7928 51.2201 18.1219 54.2068 18.1219C63.3253 18.1219 69 24.259 69 28.7083ZM47.1935 7.4472C47.1935 3.22394 50.4609 0 54.2212 0C57.9816 0 61.249 3.15685 61.249 7.41542C61.249 11.674 57.9996 15.0357 54.2212 15.0357C50.4429 15.0357 47.1935 11.7234 47.1935 7.45073V7.4472Z" fill="#007AFF"/>
</svg>
