<svg width="75" height="74" viewBox="0 0 75 74" fill="none" xmlns="http://www.w3.org/2000/svg">
<path d="M35.0682 69.1489L33.0829 72.876C32.6581 73.6822 31.8952 74.1069 30.9675 73.9769C30.1179 73.8035 29.485 73.0841 29.355 72.2L28.7655 68.0481C27.1963 67.6234 25.6791 67.034 24.1966 66.4359L21.1103 69.1836C20.4341 69.8163 19.5411 69.9463 18.7001 69.4783C17.9806 69.0102 17.6425 68.1694 17.8072 67.2766L18.6568 63.1681C17.3911 62.2407 16.0733 61.2179 14.9289 60.0824L11.123 61.6946C10.23 62.076 9.38909 61.8246 8.75621 61.0618C8.21003 60.4291 8.12334 59.493 8.58282 58.7302L10.7849 55.1764C9.89192 53.8676 9.13767 52.4721 8.4181 50.9465L4.23072 51.1545C3.33776 51.1979 2.54017 50.6432 2.2454 49.8457C1.99399 48.9963 2.24541 48.0688 2.96498 47.5574L6.22471 44.9311C5.84325 43.4055 5.50514 41.8453 5.3751 40.1464L1.39579 38.881C0.54618 38.5862 0 37.9102 0 36.974C0 36.0379 0.54618 35.3618 1.39579 35.0671L5.3751 33.8016C5.50514 32.1114 5.84325 30.5859 6.22471 29.017L2.96498 26.3907C2.24541 25.8446 1.99399 24.9951 2.2454 24.1457C2.54017 23.3396 3.34643 22.7935 4.23072 22.8369L8.4181 23.0102C9.13767 21.4847 9.90059 20.1325 10.7849 18.7803L8.58282 15.2265C8.11467 14.5071 8.20136 13.5796 8.75621 12.9382C9.38909 12.1755 10.2387 11.9674 11.123 12.3055L14.9289 13.8744C16.0733 12.7735 17.3824 11.7161 18.6568 10.7886L17.8072 6.72342C17.5991 5.79597 17.9806 4.94652 18.7001 4.5218C19.5498 4.05374 20.4341 4.14042 21.1103 4.81651L24.1966 7.52086C25.6791 6.88811 27.2049 6.37671 28.7655 5.90865L29.355 1.80011C29.485 0.907331 30.1179 0.187904 30.9675 0.0232158C31.8952 -0.106801 32.7014 0.317921 33.0829 1.08069L35.0682 4.80784C35.9178 4.7645 36.6374 4.72116 37.5217 4.72116C38.3279 4.72116 39.0475 4.7645 39.9318 4.80784L41.8824 1.08069C42.2639 0.317921 43.1135 -0.106801 43.9978 0.0232158C44.8474 0.196572 45.5236 0.915999 45.645 1.80011L46.2345 5.90865C47.7604 6.37671 49.2862 6.87944 50.8034 7.52086L53.855 4.81651C54.5313 4.14042 55.4242 4.05374 56.2652 4.5218C57.0281 4.94652 57.3662 5.7873 57.1928 6.72342L56.2999 10.7886C57.5656 11.7161 58.8834 12.7735 60.0277 13.8744L63.877 12.3055C64.7266 11.9674 65.6109 12.1755 66.2438 12.9382C66.79 13.571 66.8333 14.5071 66.3738 15.2265L64.1718 18.7803C65.0994 20.1325 65.819 21.4847 66.5386 23.0102L70.7259 22.8369C71.6189 22.7935 72.4165 23.3483 72.7113 24.1457C73.006 24.9951 72.7113 25.8793 72.035 26.3907L68.7319 29.017C69.1567 30.5859 69.4949 32.1027 69.6249 33.8016L73.5609 35.0671C74.4538 35.3618 75 36.0379 75 36.974C75 37.9102 74.4538 38.5862 73.5609 38.881L69.6249 40.1464C69.4949 41.8367 69.1567 43.4055 68.7319 44.9311L72.035 47.5574C72.7113 48.0688 73.006 48.9963 72.7113 49.8457C72.4165 50.6518 71.6102 51.1979 70.7259 51.1545L66.5386 50.9465C65.819 52.4721 65.0994 53.8676 64.1718 55.1764L66.3738 58.7302C66.842 59.493 66.7986 60.4204 66.2438 61.0618C65.6109 61.8246 64.7179 62.076 63.877 61.6946L60.0277 60.0824C58.8834 61.2265 57.5743 62.2407 56.2999 63.1681L57.1928 67.2766C57.3662 68.1694 57.0194 69.0102 56.2652 69.4783C55.4156 69.9463 54.5313 69.8163 53.855 69.1836L50.8034 66.4359C49.2775 67.0253 47.7517 67.6234 46.2345 68.0481L45.645 72.2C45.515 73.0927 44.8387 73.8122 43.9978 73.9769C43.1048 74.1069 42.3072 73.6822 41.8824 72.876L39.9318 69.1489C39.0388 69.1922 38.3193 69.2789 37.5217 69.2789C36.6287 69.2789 35.9091 69.1922 35.0682 69.1489ZM21.6044 58.2275L30.8288 43.2409C29.303 41.6286 28.3753 39.4357 28.3753 37.0607C28.3753 34.6857 29.3463 32.4061 30.9155 30.7939L21.9425 15.5126C15.4231 20.3405 11.279 28.1242 11.279 37.0087C11.279 45.8932 15.3017 53.3908 21.6044 58.2101V58.2275ZM63.6429 39.4357L46.0785 39.4357C45.0642 43.2409 41.553 46.0839 37.4003 46.0839C36.594 46.0839 35.8311 45.9539 35.0682 45.7892L25.8438 60.8538C29.3116 62.5874 33.2909 63.5235 37.5303 63.5235C51.4969 63.5235 62.4639 52.9835 63.6516 39.4444L63.6429 39.4357ZM46.0265 34.6164L63.5909 34.6164C62.4465 21.034 51.4883 10.4939 37.513 10.4939C33.4037 10.4939 29.5544 11.3867 26.1646 12.9902L35.1376 28.3496C35.8571 28.1762 36.62 28.0549 37.383 28.0549C41.4923 28.0549 44.9601 30.8026 46.0178 34.6164H46.0265ZM41.0762 37.0694C41.0762 34.9978 39.4636 33.3856 37.3916 33.3856C35.3196 33.3856 33.6637 34.9978 33.6637 37.0694C33.6637 39.141 35.3109 40.7532 37.3916 40.7532C39.4723 40.7532 41.0762 39.141 41.0762 37.0694Z" fill="#007AFF"/>
</svg>
